<svg id="visual" viewBox="0 0 900 600" width="900" height="600" xmlns="http://www.w3.org/2000/svg" xmlns:xlink="http://www.w3.org/1999/xlink" version="1.1"><rect x="0" y="0" width="900" height="600" fill="#001220"></rect><path d="M0 397L21.5 401C43 405 86 413 128.8 418.7C171.7 424.3 214.3 427.7 257.2 425.2C300 422.7 343 414.3 385.8 401.7C428.7 389 471.3 372 514.2 369.3C557 366.7 600 378.3 642.8 378C685.7 377.7 728.3 365.3 771.2 360.3C814 355.3 857 357.7 878.5 358.8L900 360L900 601L878.5 601C857 601 814 601 771.2 601C728.3 601 685.7 601 642.8 601C600 601 557 601 514.2 601C471.3 601 428.7 601 385.8 601C343 601 300 601 257.2 601C214.3 601 171.7 601 128.8 601C86 601 43 601 21.5 601L0 601Z" fill="#5e1cee"></path><path d="M0 475L21.5 467C43 459 86 443 128.8 429.8C171.7 416.7 214.3 406.3 257.2 408.2C300 410 343 424 385.8 432.3C428.7 440.7 471.3 443.3 514.2 439.3C557 435.3 600 424.7 642.8 422.8C685.7 421 728.3 428 771.2 432.5C814 437 857 439 878.5 440L900 441L900 601L878.5 601C857 601 814 601 771.2 601C728.3 601 685.7 601 642.8 601C600 601 557 601 514.2 601C471.3 601 428.7 601 385.8 601C343 601 300 601 257.2 601C214.3 601 171.7 601 128.8 601C86 601 43 601 21.5 601L0 601Z" fill="#683bf2"></path><path d="M0 507L21.5 507.7C43 508.3 86 509.7 128.8 498C171.7 486.3 214.3 461.7 257.2 457.8C300 454 343 471 385.8 477.8C428.7 484.7 471.3 481.3 514.2 476.7C557 472 600 466 642.8 470C685.7 474 728.3 488 771.2 488.5C814 489 857 476 878.5 469.5L900 463L900 601L878.5 601C857 601 814 601 771.2 601C728.3 601 685.7 601 642.8 601C600 601 557 601 514.2 601C471.3 601 428.7 601 385.8 601C343 601 300 601 257.2 601C214.3 601 171.7 601 128.8 601C86 601 43 601 21.5 601L0 601Z" fill="#7351f5"></path><path d="M0 511L21.5 511.2C43 511.3 86 511.7 128.8 509.8C171.7 508 214.3 504 257.2 505C300 506 343 512 385.8 509.2C428.7 506.3 471.3 494.7 514.2 495.5C557 496.3 600 509.7 642.8 510.3C685.7 511 728.3 499 771.2 494.2C814 489.3 857 491.7 878.5 492.8L900 494L900 601L878.5 601C857 601 814 601 771.2 601C728.3 601 685.7 601 642.8 601C600 601 557 601 514.2 601C471.3 601 428.7 601 385.8 601C343 601 300 601 257.2 601C214.3 601 171.7 601 128.8 601C86 601 43 601 21.5 601L0 601Z" fill="#7e65f7"></path><path d="M0 551L21.5 552C43 553 86 555 128.8 552.3C171.7 549.7 214.3 542.3 257.2 543.3C300 544.3 343 553.7 385.8 553.2C428.7 552.7 471.3 542.3 514.2 537.8C557 533.3 600 534.7 642.8 535.2C685.7 535.7 728.3 535.3 771.2 539.5C814 543.7 857 552.3 878.5 556.7L900 561L900 601L878.5 601C857 601 814 601 771.2 601C728.3 601 685.7 601 642.8 601C600 601 557 601 514.2 601C471.3 601 428.7 601 385.8 601C343 601 300 601 257.2 601C214.3 601 171.7 601 128.8 601C86 601 43 601 21.5 601L0 601Z" fill="#8a78f9"></path></svg>