<svg id="visual" viewBox="0 0 900 600" width="900" height="600" xmlns="http://www.w3.org/2000/svg" xmlns:xlink="http://www.w3.org/1999/xlink" version="1.1"><g stroke-width="1" stroke-linejoin="bevel"><path d="M441.4 310.3L472.6 304.3L460.6 223Z" fill="#101934" stroke="#101934"></path><path d="M472.6 304.3L494.6 253.7L460.6 223Z" fill="#5c0a42" stroke="#5c0a42"></path><path d="M460.6 223L397.4 296.7L441.4 310.3Z" fill="#7e002f" stroke="#7e002f"></path><path d="M460.6 223L418.4 200L397.4 296.7Z" fill="#331943" stroke="#331943"></path><path d="M472.6 304.3L528.8 260.7L494.6 253.7Z" fill="#331943" stroke="#331943"></path><path d="M545.8 175L503.6 150.3L460.6 223Z" fill="#900b0b" stroke="#900b0b"></path><path d="M418.4 200L347.2 236.7L397.4 296.7Z" fill="#5c0a42" stroke="#5c0a42"></path><path d="M545.8 175L460.6 223L494.6 253.7Z" fill="#6f003b" stroke="#6f003b"></path><path d="M460.6 223L503.6 150.3L418.4 200Z" fill="#00101c" stroke="#00101c"></path><path d="M418.4 200L326.2 218L347.2 236.7Z" fill="#5c0a42" stroke="#5c0a42"></path><path d="M409.4 397L464.6 395L441.4 310.3Z" fill="#061528" stroke="#061528"></path><path d="M441.4 310.3L464.6 395L472.6 304.3Z" fill="#201a3d" stroke="#201a3d"></path><path d="M472.6 304.3L536.8 363.3L528.8 260.7Z" fill="#8a0020" stroke="#8a0020"></path><path d="M409.4 397L441.4 310.3L397.4 296.7Z" fill="#101934" stroke="#101934"></path><path d="M464.6 395L536.8 363.3L472.6 304.3Z" fill="#7e002f" stroke="#7e002f"></path><path d="M337.2 151.3L326.2 218L418.4 200Z" fill="#5c0a42" stroke="#5c0a42"></path><path d="M316.2 361.3L409.4 397L397.4 296.7Z" fill="#900b0b" stroke="#900b0b"></path><path d="M600.1 207L545.8 175L528.8 260.7Z" fill="#900b0b" stroke="#900b0b"></path><path d="M528.8 260.7L545.8 175L494.6 253.7Z" fill="#101934" stroke="#101934"></path><path d="M316.2 361.3L397.4 296.7L347.2 236.7Z" fill="#00101c" stroke="#00101c"></path><path d="M464.6 395L532.8 376L536.8 363.3Z" fill="#061528" stroke="#061528"></path><path d="M503.6 150.3L416.4 120.3L418.4 200Z" fill="#7e002f" stroke="#7e002f"></path><path d="M614.1 328.3L528.8 260.7L536.8 363.3Z" fill="#7e002f" stroke="#7e002f"></path><path d="M614.1 328.3L600.1 266.7L528.8 260.7Z" fill="#201a3d" stroke="#201a3d"></path><path d="M416.4 120.3L337.2 151.3L418.4 200Z" fill="#6f003b" stroke="#6f003b"></path><path d="M600.1 207L564.8 153.3L545.8 175Z" fill="#8a0020" stroke="#8a0020"></path><path d="M545.8 175L564.8 153.3L503.6 150.3Z" fill="#101934" stroke="#101934"></path><path d="M492.6 38.7L400.4 50.7L416.4 120.3Z" fill="#5c0a42" stroke="#5c0a42"></path><path d="M600.1 266.7L600.1 207L528.8 260.7Z" fill="#061528" stroke="#061528"></path><path d="M266.9 264.7L316.2 361.3L347.2 236.7Z" fill="#7e002f" stroke="#7e002f"></path><path d="M337.2 151.3L290.9 214L326.2 218Z" fill="#8a0020" stroke="#8a0020"></path><path d="M326.2 218L266.9 264.7L347.2 236.7Z" fill="#101934" stroke="#101934"></path><path d="M592.1 406L614.1 328.3L536.8 363.3Z" fill="#6f003b" stroke="#6f003b"></path><path d="M600.1 266.7L675.3 246.7L600.1 207Z" fill="#481445" stroke="#481445"></path><path d="M290.9 214L266.9 264.7L326.2 218Z" fill="#900b0b" stroke="#900b0b"></path><path d="M316.2 361.3L357.2 428L409.4 397Z" fill="#900b0b" stroke="#900b0b"></path><path d="M409.4 460.7L496.6 455.7L464.6 395Z" fill="#8a0020" stroke="#8a0020"></path><path d="M464.6 395L496.6 455.7L532.8 376Z" fill="#900b0b" stroke="#900b0b"></path><path d="M409.4 460.7L464.6 395L409.4 397Z" fill="#00101c" stroke="#00101c"></path><path d="M532.8 376L592.1 406L536.8 363.3Z" fill="#331943" stroke="#331943"></path><path d="M357.2 428L409.4 460.7L409.4 397Z" fill="#5c0a42" stroke="#5c0a42"></path><path d="M537.8 466.7L592.1 406L532.8 376Z" fill="#6f003b" stroke="#6f003b"></path><path d="M316.2 361.3L269.9 375L357.2 428Z" fill="#7e002f" stroke="#7e002f"></path><path d="M357.2 428L324.2 489.7L409.4 460.7Z" fill="#7e002f" stroke="#7e002f"></path><path d="M245.9 335.3L269.9 375L316.2 361.3Z" fill="#7e002f" stroke="#7e002f"></path><path d="M290.9 214L236.7 261.7L266.9 264.7Z" fill="#8a0020" stroke="#8a0020"></path><path d="M266.9 264.7L245.9 335.3L316.2 361.3Z" fill="#481445" stroke="#481445"></path><path d="M194.7 209L236.7 261.7L290.9 214Z" fill="#101934" stroke="#101934"></path><path d="M641.1 128.3L575.8 93.7L564.8 153.3Z" fill="#481445" stroke="#481445"></path><path d="M564.8 153.3L575.8 93.7L503.6 150.3Z" fill="#900b0b" stroke="#900b0b"></path><path d="M236.7 261.7L245.9 335.3L266.9 264.7Z" fill="#201a3d" stroke="#201a3d"></path><path d="M502.6 527.3L537.8 466.7L496.6 455.7Z" fill="#481445" stroke="#481445"></path><path d="M496.6 455.7L537.8 466.7L532.8 376Z" fill="#331943" stroke="#331943"></path><path d="M492.6 38.7L416.4 120.3L503.6 150.3Z" fill="#900b0b" stroke="#900b0b"></path><path d="M416.4 120.3L339.2 54.7L337.2 151.3Z" fill="#061528" stroke="#061528"></path><path d="M337.2 151.3L256.9 146.3L290.9 214Z" fill="#331943" stroke="#331943"></path><path d="M283.9 78.7L256.9 146.3L337.2 151.3Z" fill="#00101c" stroke="#00101c"></path><path d="M614.1 328.3L675.3 246.7L600.1 266.7Z" fill="#201a3d" stroke="#201a3d"></path><path d="M600.1 207L641.1 128.3L564.8 153.3Z" fill="#00101c" stroke="#00101c"></path><path d="M675.3 362.3L675.3 246.7L614.1 328.3Z" fill="#481445" stroke="#481445"></path><path d="M575.8 93.7L492.6 38.7L503.6 150.3Z" fill="#00101c" stroke="#00101c"></path><path d="M143.5 331.3L230.7 354.3L245.9 335.3Z" fill="#900b0b" stroke="#900b0b"></path><path d="M245.9 335.3L230.7 354.3L269.9 375Z" fill="#6f003b" stroke="#6f003b"></path><path d="M254.9 445.7L324.2 489.7L357.2 428Z" fill="#201a3d" stroke="#201a3d"></path><path d="M705.3 201L641.1 128.3L600.1 207Z" fill="#8a0020" stroke="#8a0020"></path><path d="M557.8 0L459.6 0L492.6 38.7Z" fill="#481445" stroke="#481445"></path><path d="M400.4 50.7L339.2 54.7L416.4 120.3Z" fill="#00101c" stroke="#00101c"></path><path d="M358.2 0L339.2 54.7L400.4 50.7Z" fill="#7e002f" stroke="#7e002f"></path><path d="M710.3 411L675.3 362.3L678.3 459.7Z" fill="#481445" stroke="#481445"></path><path d="M592.1 406L675.3 362.3L614.1 328.3Z" fill="#7e002f" stroke="#7e002f"></path><path d="M339.2 54.7L283.9 78.7L337.2 151.3Z" fill="#5c0a42" stroke="#5c0a42"></path><path d="M254.9 445.7L357.2 428L269.9 375Z" fill="#8a0020" stroke="#8a0020"></path><path d="M409.4 460.7L502.6 527.3L496.6 455.7Z" fill="#061528" stroke="#061528"></path><path d="M256.9 146.3L194.7 209L290.9 214Z" fill="#101934" stroke="#101934"></path><path d="M236.7 261.7L143.5 331.3L245.9 335.3Z" fill="#061528" stroke="#061528"></path><path d="M188.7 155.3L194.7 209L256.9 146.3Z" fill="#481445" stroke="#481445"></path><path d="M742.5 283.7L705.3 201L675.3 246.7Z" fill="#00101c" stroke="#00101c"></path><path d="M675.3 246.7L705.3 201L600.1 207Z" fill="#6f003b" stroke="#6f003b"></path><path d="M212.7 405L254.9 445.7L269.9 375Z" fill="#6f003b" stroke="#6f003b"></path><path d="M537.8 519.3L603.1 483.7L537.8 466.7Z" fill="#8a0020" stroke="#8a0020"></path><path d="M537.8 466.7L603.1 483.7L592.1 406Z" fill="#101934" stroke="#101934"></path><path d="M557.8 0L492.6 38.7L575.8 93.7Z" fill="#00101c" stroke="#00101c"></path><path d="M492.6 38.7L435.4 0L400.4 50.7Z" fill="#101934" stroke="#101934"></path><path d="M339.2 54.7L271.9 0L283.9 78.7Z" fill="#331943" stroke="#331943"></path><path d="M384.4 539.3L502.6 527.3L409.4 460.7Z" fill="#7e002f" stroke="#7e002f"></path><path d="M459.6 0L435.4 0L492.6 38.7Z" fill="#7e002f" stroke="#7e002f"></path><path d="M502.6 527.3L537.8 519.3L537.8 466.7Z" fill="#101934" stroke="#101934"></path><path d="M143.5 331.3L212.7 405L230.7 354.3Z" fill="#8a0020" stroke="#8a0020"></path><path d="M230.7 354.3L212.7 405L269.9 375Z" fill="#900b0b" stroke="#900b0b"></path><path d="M722.3 121.3L647.1 74.7L641.1 128.3Z" fill="#00101c" stroke="#00101c"></path><path d="M641.1 128.3L647.1 74.7L575.8 93.7Z" fill="#331943" stroke="#331943"></path><path d="M327.2 559.3L384.4 539.3L324.2 489.7Z" fill="#8a0020" stroke="#8a0020"></path><path d="M324.2 489.7L384.4 539.3L409.4 460.7Z" fill="#481445" stroke="#481445"></path><path d="M435.4 0L358.2 0L400.4 50.7Z" fill="#5c0a42" stroke="#5c0a42"></path><path d="M183.7 94.7L188.7 155.3L256.9 146.3Z" fill="#7e002f" stroke="#7e002f"></path><path d="M194.7 209L153.5 245.7L236.7 261.7Z" fill="#101934" stroke="#101934"></path><path d="M183.7 94.7L256.9 146.3L283.9 78.7Z" fill="#5c0a42" stroke="#5c0a42"></path><path d="M626.1 0L557.8 0L575.8 93.7Z" fill="#900b0b" stroke="#900b0b"></path><path d="M745.5 322.3L742.5 283.7L675.3 362.3Z" fill="#481445" stroke="#481445"></path><path d="M675.3 362.3L742.5 283.7L675.3 246.7Z" fill="#00101c" stroke="#00101c"></path><path d="M188.7 155.3L167.5 182L194.7 209Z" fill="#331943" stroke="#331943"></path><path d="M167.5 182L153.5 245.7L194.7 209Z" fill="#101934" stroke="#101934"></path><path d="M678.3 459.7L675.3 362.3L592.1 406Z" fill="#5c0a42" stroke="#5c0a42"></path><path d="M212.7 405L205.7 440.7L254.9 445.7Z" fill="#5c0a42" stroke="#5c0a42"></path><path d="M254.9 445.7L264.9 504.3L324.2 489.7Z" fill="#061528" stroke="#061528"></path><path d="M148.5 459.7L205.7 440.7L212.7 405Z" fill="#061528" stroke="#061528"></path><path d="M664.3 548.3L678.3 459.7L603.1 483.7Z" fill="#201a3d" stroke="#201a3d"></path><path d="M603.1 483.7L678.3 459.7L592.1 406Z" fill="#061528" stroke="#061528"></path><path d="M205.7 440.7L264.9 504.3L254.9 445.7Z" fill="#6f003b" stroke="#6f003b"></path><path d="M710.3 411L745.5 322.3L675.3 362.3Z" fill="#061528" stroke="#061528"></path><path d="M705.3 201L722.3 121.3L641.1 128.3Z" fill="#061528" stroke="#061528"></path><path d="M647.1 74.7L626.1 0L575.8 93.7Z" fill="#481445" stroke="#481445"></path><path d="M774.5 221L722.3 121.3L705.3 201Z" fill="#061528" stroke="#061528"></path><path d="M153.5 245.7L143.5 331.3L236.7 261.7Z" fill="#101934" stroke="#101934"></path><path d="M219.7 0L183.7 94.7L283.9 78.7Z" fill="#00101c" stroke="#00101c"></path><path d="M188.7 155.3L143.5 131.3L167.5 182Z" fill="#900b0b" stroke="#900b0b"></path><path d="M167.5 182L98.2 219L153.5 245.7Z" fill="#900b0b" stroke="#900b0b"></path><path d="M264.9 504.3L327.2 559.3L324.2 489.7Z" fill="#00101c" stroke="#00101c"></path><path d="M384.4 539.3L455.6 600L502.6 527.3Z" fill="#481445" stroke="#481445"></path><path d="M675.3 0L626.1 0L647.1 74.7Z" fill="#201a3d" stroke="#201a3d"></path><path d="M358.2 0L271.9 0L339.2 54.7Z" fill="#6f003b" stroke="#6f003b"></path><path d="M565.8 600L537.8 519.3L502.6 527.3Z" fill="#101934" stroke="#101934"></path><path d="M565.8 600L620.1 545.3L537.8 519.3Z" fill="#00101c" stroke="#00101c"></path><path d="M537.8 519.3L620.1 545.3L603.1 483.7Z" fill="#5c0a42" stroke="#5c0a42"></path><path d="M722.3 121.3L705.3 61.7L647.1 74.7Z" fill="#331943" stroke="#331943"></path><path d="M816.8 254.7L774.5 221L742.5 283.7Z" fill="#8a0020" stroke="#8a0020"></path><path d="M742.5 283.7L774.5 221L705.3 201Z" fill="#6f003b" stroke="#6f003b"></path><path d="M722.3 121.3L730.5 91.7L705.3 61.7Z" fill="#061528" stroke="#061528"></path><path d="M777.5 104.3L730.5 91.7L722.3 121.3Z" fill="#101934" stroke="#101934"></path><path d="M417.4 600L455.6 600L384.4 539.3Z" fill="#331943" stroke="#331943"></path><path d="M183.7 94.7L143.5 131.3L188.7 155.3Z" fill="#5c0a42" stroke="#5c0a42"></path><path d="M44.2 304.3L126.5 379L143.5 331.3Z" fill="#8a0020" stroke="#8a0020"></path><path d="M108.5 83.7L143.5 131.3L183.7 94.7Z" fill="#7e002f" stroke="#7e002f"></path><path d="M330.2 600L417.4 600L384.4 539.3Z" fill="#481445" stroke="#481445"></path><path d="M61.2 281.7L143.5 331.3L153.5 245.7Z" fill="#331943" stroke="#331943"></path><path d="M143.5 331.3L126.5 379L212.7 405Z" fill="#101934" stroke="#101934"></path><path d="M205.7 440.7L188.7 548.3L264.9 504.3Z" fill="#201a3d" stroke="#201a3d"></path><path d="M762.5 0L675.3 0L705.3 61.7Z" fill="#00101c" stroke="#00101c"></path><path d="M705.3 61.7L675.3 0L647.1 74.7Z" fill="#061528" stroke="#061528"></path><path d="M271.9 0L219.7 0L283.9 78.7Z" fill="#481445" stroke="#481445"></path><path d="M455.6 600L565.8 600L502.6 527.3Z" fill="#201a3d" stroke="#201a3d"></path><path d="M143.5 131.3L98.2 219L167.5 182Z" fill="#5c0a42" stroke="#5c0a42"></path><path d="M273.9 600L330.2 600L327.2 559.3Z" fill="#5c0a42" stroke="#5c0a42"></path><path d="M327.2 559.3L330.2 600L384.4 539.3Z" fill="#331943" stroke="#331943"></path><path d="M273.9 600L327.2 559.3L264.9 504.3Z" fill="#900b0b" stroke="#900b0b"></path><path d="M668.3 600L664.3 548.3L620.1 545.3Z" fill="#5c0a42" stroke="#5c0a42"></path><path d="M620.1 545.3L664.3 548.3L603.1 483.7Z" fill="#5c0a42" stroke="#5c0a42"></path><path d="M745.5 469.7L771.5 415L710.3 411Z" fill="#5c0a42" stroke="#5c0a42"></path><path d="M710.3 411L771.5 415L745.5 322.3Z" fill="#900b0b" stroke="#900b0b"></path><path d="M745.5 469.7L710.3 411L678.3 459.7Z" fill="#8a0020" stroke="#8a0020"></path><path d="M816.8 325.3L816.8 254.7L742.5 283.7Z" fill="#201a3d" stroke="#201a3d"></path><path d="M126.5 379L148.5 459.7L212.7 405Z" fill="#201a3d" stroke="#201a3d"></path><path d="M664.3 548.3L745.5 469.7L678.3 459.7Z" fill="#6f003b" stroke="#6f003b"></path><path d="M815.8 184L722.3 121.3L774.5 221Z" fill="#481445" stroke="#481445"></path><path d="M815.8 184L777.5 104.3L722.3 121.3Z" fill="#6f003b" stroke="#6f003b"></path><path d="M730.5 91.7L762.5 0L705.3 61.7Z" fill="#101934" stroke="#101934"></path><path d="M565.8 600L601.1 600L620.1 545.3Z" fill="#00101c" stroke="#00101c"></path><path d="M816.8 325.3L742.5 283.7L745.5 322.3Z" fill="#5c0a42" stroke="#5c0a42"></path><path d="M848.8 420L816.8 325.3L771.5 415Z" fill="#00101c" stroke="#00101c"></path><path d="M771.5 415L816.8 325.3L745.5 322.3Z" fill="#201a3d" stroke="#201a3d"></path><path d="M816.8 254.7L815.8 184L774.5 221Z" fill="#6f003b" stroke="#6f003b"></path><path d="M188.7 548.3L273.9 600L264.9 504.3Z" fill="#061528" stroke="#061528"></path><path d="M148.5 459.7L188.7 548.3L205.7 440.7Z" fill="#5c0a42" stroke="#5c0a42"></path><path d="M0 398L99.2 425L126.5 379Z" fill="#201a3d" stroke="#201a3d"></path><path d="M126.5 379L99.2 425L148.5 459.7Z" fill="#6f003b" stroke="#6f003b"></path><path d="M148.5 459.7L112.5 528.3L188.7 548.3Z" fill="#101934" stroke="#101934"></path><path d="M140.5 0L108.5 83.7L183.7 94.7Z" fill="#7e002f" stroke="#7e002f"></path><path d="M143.5 131.3L75.2 140.3L98.2 219Z" fill="#201a3d" stroke="#201a3d"></path><path d="M98.2 219L61.2 281.7L153.5 245.7Z" fill="#061528" stroke="#061528"></path><path d="M0 265.7L61.2 281.7L0 216Z" fill="#7e002f" stroke="#7e002f"></path><path d="M108.5 83.7L75.2 140.3L143.5 131.3Z" fill="#101934" stroke="#101934"></path><path d="M900 236.7L815.8 184L816.8 254.7Z" fill="#7e002f" stroke="#7e002f"></path><path d="M900 172L821.8 126.3L815.8 184Z" fill="#331943" stroke="#331943"></path><path d="M815.8 184L821.8 126.3L777.5 104.3Z" fill="#6f003b" stroke="#6f003b"></path><path d="M817.8 45.7L762.5 0L730.5 91.7Z" fill="#6f003b" stroke="#6f003b"></path><path d="M787.5 543.3L808.8 496.7L745.5 469.7Z" fill="#5c0a42" stroke="#5c0a42"></path><path d="M601.1 600L668.3 600L620.1 545.3Z" fill="#8a0020" stroke="#8a0020"></path><path d="M0 265.7L44.2 304.3L61.2 281.7Z" fill="#6f003b" stroke="#6f003b"></path><path d="M61.2 281.7L44.2 304.3L143.5 331.3Z" fill="#201a3d" stroke="#201a3d"></path><path d="M219.7 0L140.5 0L183.7 94.7Z" fill="#331943" stroke="#331943"></path><path d="M108.5 83.7L40.2 94.7L75.2 140.3Z" fill="#900b0b" stroke="#900b0b"></path><path d="M817.8 45.7L730.5 91.7L777.5 104.3Z" fill="#061528" stroke="#061528"></path><path d="M158.5 600L199.7 600L188.7 548.3Z" fill="#061528" stroke="#061528"></path><path d="M188.7 548.3L199.7 600L273.9 600Z" fill="#061528" stroke="#061528"></path><path d="M99.2 425L89.2 477.7L148.5 459.7Z" fill="#00101c" stroke="#00101c"></path><path d="M0 456.7L89.2 477.7L99.2 425Z" fill="#481445" stroke="#481445"></path><path d="M89.2 477.7L112.5 528.3L148.5 459.7Z" fill="#7e002f" stroke="#7e002f"></path><path d="M787.5 543.3L745.5 469.7L664.3 548.3Z" fill="#481445" stroke="#481445"></path><path d="M745.5 469.7L808.8 496.7L771.5 415Z" fill="#900b0b" stroke="#900b0b"></path><path d="M808.8 496.7L848.8 420L771.5 415Z" fill="#481445" stroke="#481445"></path><path d="M900 317.3L900 236.7L816.8 254.7Z" fill="#201a3d" stroke="#201a3d"></path><path d="M821.8 126.3L817.8 45.7L777.5 104.3Z" fill="#00101c" stroke="#00101c"></path><path d="M900 123.3L817.8 45.7L821.8 126.3Z" fill="#201a3d" stroke="#201a3d"></path><path d="M778.5 600L787.5 543.3L664.3 548.3Z" fill="#6f003b" stroke="#6f003b"></path><path d="M808.8 496.7L858.8 504.3L848.8 420Z" fill="#6f003b" stroke="#6f003b"></path><path d="M112.5 528.3L158.5 600L188.7 548.3Z" fill="#900b0b" stroke="#900b0b"></path><path d="M60.2 0L40.2 94.7L108.5 83.7Z" fill="#00101c" stroke="#00101c"></path><path d="M0 216L61.2 281.7L98.2 219Z" fill="#6f003b" stroke="#6f003b"></path><path d="M0 216L98.2 219L75.2 140.3Z" fill="#331943" stroke="#331943"></path><path d="M44.2 304.3L0 398L126.5 379Z" fill="#201a3d" stroke="#201a3d"></path><path d="M0 265.7L0 312.3L44.2 304.3Z" fill="#6f003b" stroke="#6f003b"></path><path d="M89.2 477.7L90.2 550.3L112.5 528.3Z" fill="#900b0b" stroke="#900b0b"></path><path d="M900 317.3L816.8 254.7L816.8 325.3Z" fill="#900b0b" stroke="#900b0b"></path><path d="M0 106.3L0 216L75.2 140.3Z" fill="#900b0b" stroke="#900b0b"></path><path d="M900 422L900 317.3L848.8 420Z" fill="#8a0020" stroke="#8a0020"></path><path d="M848.8 420L900 317.3L816.8 325.3Z" fill="#331943" stroke="#331943"></path><path d="M0 559.3L90.2 550.3L89.2 477.7Z" fill="#331943" stroke="#331943"></path><path d="M112.5 528.3L90.2 550.3L158.5 600Z" fill="#7e002f" stroke="#7e002f"></path><path d="M900 236.7L900 172L815.8 184Z" fill="#00101c" stroke="#00101c"></path><path d="M0 312.3L0 398L44.2 304.3Z" fill="#201a3d" stroke="#201a3d"></path><path d="M668.3 600L778.5 600L664.3 548.3Z" fill="#8a0020" stroke="#8a0020"></path><path d="M787.5 543.3L858.8 504.3L808.8 496.7Z" fill="#8a0020" stroke="#8a0020"></path><path d="M140.5 0L60.2 0L108.5 83.7Z" fill="#7e002f" stroke="#7e002f"></path><path d="M40.2 94.7L0 106.3L75.2 140.3Z" fill="#061528" stroke="#061528"></path><path d="M900 172L900 123.3L821.8 126.3Z" fill="#5c0a42" stroke="#5c0a42"></path><path d="M814.8 600L858.8 504.3L787.5 543.3Z" fill="#331943" stroke="#331943"></path><path d="M0 75.7L0 106.3L40.2 94.7Z" fill="#331943" stroke="#331943"></path><path d="M900 450.7L900 422L848.8 420Z" fill="#061528" stroke="#061528"></path><path d="M900 41.7L856.8 0L817.8 45.7Z" fill="#900b0b" stroke="#900b0b"></path><path d="M817.8 45.7L856.8 0L762.5 0Z" fill="#900b0b" stroke="#900b0b"></path><path d="M858.8 504.3L900 450.7L848.8 420Z" fill="#8a0020" stroke="#8a0020"></path><path d="M0 398L0 456.7L99.2 425Z" fill="#201a3d" stroke="#201a3d"></path><path d="M60.2 0L0 75.7L40.2 94.7Z" fill="#201a3d" stroke="#201a3d"></path><path d="M0 559.3L88.2 600L90.2 550.3Z" fill="#201a3d" stroke="#201a3d"></path><path d="M90.2 550.3L88.2 600L158.5 600Z" fill="#061528" stroke="#061528"></path><path d="M778.5 600L814.8 600L787.5 543.3Z" fill="#061528" stroke="#061528"></path><path d="M858.8 504.3L900 548.3L900 450.7Z" fill="#101934" stroke="#101934"></path><path d="M900 123.3L900 41.7L817.8 45.7Z" fill="#8a0020" stroke="#8a0020"></path><path d="M60.2 0L0 0L0 75.7Z" fill="#201a3d" stroke="#201a3d"></path><path d="M900 41.7L900 0L856.8 0Z" fill="#7e002f" stroke="#7e002f"></path><path d="M814.8 600L900 548.3L858.8 504.3Z" fill="#6f003b" stroke="#6f003b"></path><path d="M0 456.7L0 559.3L89.2 477.7Z" fill="#7e002f" stroke="#7e002f"></path><path d="M0 559.3L0 600L88.2 600Z" fill="#101934" stroke="#101934"></path><path d="M814.8 600L900 600L900 548.3Z" fill="#6f003b" stroke="#6f003b"></path></g></svg>