<svg id="visual" viewBox="0 0 900 600" width="900" height="600" xmlns="http://www.w3.org/2000/svg" xmlns:xlink="http://www.w3.org/1999/xlink" version="1.1"><rect width="900" height="600" fill="#001829"></rect><g><g transform="translate(261 522)"><path d="M0 -147L139.8 -45.4L86.4 118.9L-86.4 118.9L-139.8 -45.4Z" fill="#297EA6"></path></g><g transform="translate(689 259)"><path d="M0 -141L134.1 -43.6L82.9 114.1L-82.9 114.1L-134.1 -43.6Z" fill="#297EA6"></path></g><g transform="translate(108 68)"><path d="M0 -101L96.1 -31.2L59.4 81.7L-59.4 81.7L-96.1 -31.2Z" fill="#297EA6"></path></g><g transform="translate(431 111)"><path d="M0 -106L100.8 -32.8L62.3 85.8L-62.3 85.8L-100.8 -32.8Z" fill="#297EA6"></path></g><g transform="translate(827 520)"><path d="M0 -122L116 -37.7L71.7 98.7L-71.7 98.7L-116 -37.7Z" fill="#297EA6"></path></g><g transform="translate(872 8)"><path d="M0 -120L114.1 -37.1L70.5 97.1L-70.5 97.1L-114.1 -37.1Z" fill="#297EA6"></path></g></g></svg>